<?xml version="1.0" standalone="no"?>
<svg viewBox="0 0 200 200" xmlns="http://www.w3.org/2000/svg">
  <path fill="#130F40" d="M25.1,-45.9C30.3,-35.7,30.9,-25,32.5,-16.4C34.1,-7.7,36.7,-1,42.5,11C48.4,23,57.4,40.3,54.1,50.4C50.8,60.5,35.1,63.3,22.4,59.2C9.6,55.2,-0.1,44.4,-14,42.6C-27.9,40.8,-45.9,48.1,-54,43.9C-62.1,39.7,-60.2,24.1,-61.9,9.2C-63.5,-5.7,-68.7,-19.7,-61.9,-25.7C-55.2,-31.7,-36.4,-29.6,-24.1,-36.7C-11.8,-43.7,-5.9,-59.9,2,-63C9.9,-66.1,19.8,-56.2,25.1,-45.9Z" transform="translate(100 100)" />
</svg>
